<?xml version="1.0" encoding="utf-8"?>
<!-- Generator: Adobe Illustrator 18.0.0, SVG Export Plug-In . SVG Version: 6.00 Build 0)  -->
<!DOCTYPE svg PUBLIC "-//W3C//DTD SVG 1.1//EN" "http://www.w3.org/Graphics/SVG/1.1/DTD/svg11.dtd">
<svg version="1.1" id="Layer_1" xmlns="http://www.w3.org/2000/svg" xmlns:xlink="http://www.w3.org/1999/xlink" x="0px" y="0px"
	 viewBox="0 0 792 612" enable-background="new 0 0 792 612" xml:space="preserve">
<g>
	<path fill="#FFFFFF" d="M606.7,173.6l-49.4-63.3c-4.5-5.7-13-12.3-20.2-12.3H290c-7.2,0-14.1,6.6-18.6,12.3l-47.6,61.6
		c-5,6.3-8.8,19.6-8.8,28.4v43.9c7-6,9.1-10.5,15.8-12.8c0.4-5,1.8-9.9,4.4-14.3c4.5-7.7,11.7-13.1,20.3-15.4
		c3.1-0.8,5.9-1.2,8.7-1.2c11.4,0,21.7,5.8,27.8,14.9c1.8-0.3,3.6-0.5,5.4-0.5c5.6,0,10.9,1.5,15.5,4.2l26.5-6.9
		c3.3-0.9,6.7-1.3,10.1-1.3c18.3,0,34.3,12.4,38.9,30.1l51.9,199.5c2.7,10.4,1.2,21.2-4.2,30.5c-5.4,9.3-14.2,15-24.6,17.7
		l-23.2,5.1h194.5c16.4,0,36.2-11.6,36.2-28V199.5C619,191.5,611.7,179.8,606.7,173.6z M239.2,164l15.8-15h108l10.7-24H269
		l11.7-10.6c2.3-2.8,5.7-0.4,9.3-0.4h247.1c3.6,0,7-2.4,9.3,0.4l11.7,10.6H451.5l5.9,24h114.6l15.8,15H239.2z"/>
	<path fill="#FFFFFF" d="M244.1,246.3l-6.7,1.7c-7.1,1.9-11.4,9.1-9.5,16.2l0.1,0.3c1.9,7.1,9.1,11.4,16.2,9.5l56.6-14.7
		c7.1-1.9,11.4-9.1,9.5-16.2l-0.1-0.3c-1.8-7.1-9.1-11.4-16.2-9.5l-6.7,1.7c-3.6,0.9-7.2-1.2-8.1-4.8l-0.1-0.2
		c-2.2-8.3-10.6-13.3-18.9-11.1l-0.3,0.1c-8.3,2.2-13.3,10.6-11.1,18.9l0.1,0.2C249.8,241.8,247.6,245.4,244.1,246.3z"/>
	<circle fill="#FFFFFF" cx="264" cy="234.2" r="6.7"/>
	<path fill="#FFFFFF" d="M345.8,432.8c0.6,2.4-0.8,4.8-3.2,5.5l-82.4,21.4c-2.4,0.6-4.8-0.8-5.5-3.2l-1.1-4.3
		c-0.6-2.4,0.8-4.8,3.2-5.5l82.4-21.4c2.4-0.6,4.8,0.8,5.5,3.2L345.8,432.8z"/>
	<path fill="#FFFFFF" d="M355.8,346.9l1.1,4.3c0.6,2.4-0.8,4.8-3.2,5.5L241,386c-2.4,0.6-4.8-0.8-5.5-3.2l-1.1-4.3
		c-0.6-2.4,0.8-4.8,3.2-5.5l112.7-29.3C352.7,343.1,355.2,344.5,355.8,346.9z"/>
	<path fill="#FFFFFF" d="M343.6,317.7L230.8,347c-2.4,0.6-4.8-0.8-5.5-3.2l-1.1-4.3c-0.6-2.4,0.8-4.8,3.2-5.5l112.7-29.3
		c2.4-0.6,4.8,0.8,5.5,3.2l1.1,4.3C347.4,314.6,346,317,343.6,317.7z"/>
	<path fill="#FFFFFF" d="M341.1,397L250,420.7c-2.4,0.6-4.8-0.8-5.5-3.2l-1.1-4.3c-0.6-2.4,0.8-4.8,3.2-5.5l91.1-23.7
		c2.4-0.6,4.8,0.8,5.5,3.2l1.1,4.3C344.9,393.9,343.5,396.4,341.1,397z"/>
	<path fill="#FFFFFF" d="M423,445.1l-51.9-199.5c-3.1-12-15.3-19.2-27.3-16l-26.4,6.9c0.6,1.3,1.1,2.7,1.5,4.1
		c3.2,12.1-4,24.3-15.9,27.4l-55.8,14.5c-11.4,3-23.7-2.9-27.5-14c-0.7-2.1-1.1-4.2-1.2-6.3l-26.5,6.9c-12,3.1-19.2,15.3-16,27.3
		l51.9,199.5c3.1,12,15.3,19.2,27.3,16L407,472.5C419,469.3,426.1,457.1,423,445.1z M249.6,490.3l-45.1-173.4l151.8-39.5l45.1,173.4
		L249.6,490.3z"/>
</g>
</svg>
