<?xml version="1.0" encoding="utf-8"?>
<!-- Generator: Adobe Illustrator 18.0.0, SVG Export Plug-In . SVG Version: 6.00 Build 0)  -->
<!DOCTYPE svg PUBLIC "-//W3C//DTD SVG 1.1//EN" "http://www.w3.org/Graphics/SVG/1.1/DTD/svg11.dtd">
<svg version="1.1" id="Layer_1" xmlns="http://www.w3.org/2000/svg" xmlns:xlink="http://www.w3.org/1999/xlink" x="0px" y="0px"
	 viewBox="0 0 792 612" enable-background="new 0 0 792 612" xml:space="preserve">
<path fill="#FFFFFF" d="M395.5,126.9c-65.4,0-118.5,53.2-118.5,118.5c0,26.3,16.8,69.2,51.4,131.2c24.5,43.8,48.5,80.4,49.5,81.9
	l17.6,26.7l17.6-26.7c1-1.5,25.1-38,49.5-81.9c34.6-62,51.4-104.9,51.4-131.2C514,180.1,460.9,126.9,395.5,126.9z M395.5,306.1
	c-33.9,0-61.4-27.5-61.4-61.4c0-33.9,27.5-61.4,61.4-61.4c33.9,0,61.4,27.5,61.4,61.4C457,278.6,429.5,306.1,395.5,306.1z"/>
</svg>
