<?xml version="1.0" encoding="utf-8"?>
<!-- Generator: Adobe Illustrator 18.0.0, SVG Export Plug-In . SVG Version: 6.00 Build 0)  -->
<!DOCTYPE svg PUBLIC "-//W3C//DTD SVG 1.1//EN" "http://www.w3.org/Graphics/SVG/1.1/DTD/svg11.dtd">
<svg version="1.1" id="Layer_1" xmlns="http://www.w3.org/2000/svg" xmlns:xlink="http://www.w3.org/1999/xlink" x="0px" y="0px"
	 viewBox="0 0 792 612" enable-background="new 0 0 792 612" xml:space="preserve">
<g>
	<path fill="#FFFFFF" d="M399.6,98.1h-10.7c-5.7,0-10.4-4.6-10.4-10.4v-0.3c0-13.3-10.8-24-24-24h-0.6c-13.3,0-24,10.8-24,24v0.3
		c0,5.7-4.6,10.4-10.4,10.4h-10.7c-11.4,0-20.6,9.2-20.6,20.6v0.4c0,11.4,9.2,20.6,20.6,20.6h90.8c11.4,0,20.6-9.2,20.6-20.6v-0.4
		C420.2,107.3,411,98.1,399.6,98.1z"/>
	<circle fill="#FFFFFF" cx="354.2" cy="87.6" r="10.4"/>
	<path fill="#FFFFFF" d="M400.6,501.1h-175c-15.4,0-27.8-12.4-27.8-27.8V139.8c0-15.4,12.4-27.8,20.8-27.8H275
		c-0.5,2.3-0.7,4.7-0.7,7.2c0,19,15.5,34.5,34.5,34.5h90.8c19,0,34.5-15.5,34.5-35c0-2.3-0.2-4.6-0.7-6.7h42.4
		c22.3,0,34.7,12.4,34.7,27.8v208.8c-2.3-0.1-4.6-0.4-7-0.4c-9.6,0-18.9,1.4-27.8,3.7V188.4H232.6v278h160.2
		C393.6,478.6,396.2,490.3,400.6,501.1z"/>
	<circle fill="#FFFFFF" cx="503.6" cy="459.4" r="90.3"/>
	<path fill="#397CBF" d="M562.7,440.9l-55.6,62.5c-2.7,3.1-6.6,4.7-10.4,4.7c-3.1,0-6.1-1-8.7-3l-34.7-27.8c-6-4.8-7-13.5-2.2-19.5
		c4.8-6,13.5-7,19.5-2.2l24.4,19.6l46.8-52.7c5.1-5.7,13.9-6.3,19.6-1.2C567.3,426.4,567.8,435.1,562.7,440.9z"/>
	<path fill="#FFFFFF" d="M441.1,306.5H329.9c-3.8,0-6.9-3.1-6.9-6.9v-7c0-3.8,3.1-6.9,6.9-6.9h111.2c3.8,0,7,3.1,7,6.9v7
		C448,303.4,444.9,306.5,441.1,306.5z"/>
	<path fill="#FFFFFF" d="M441.1,244H329.9c-3.8,0-6.9-3.1-6.9-6.9v-7c0-3.8,3.1-7,6.9-7h111.2c3.8,0,7,3.1,7,7v7
		C448,240.9,444.9,244,441.1,244z"/>
	<path fill="#FFFFFF" d="M406.3,362.1h-76.4c-3.8,0-6.9-3.1-6.9-6.9v-7c0-3.8,3.1-7,6.9-7h76.4c3.8,0,6.9,3.1,6.9,7v7
		C413.3,359,410.2,362.1,406.3,362.1z"/>
	<path fill="#FFFFFF" d="M392.4,424.7h-62.5c-3.8,0-6.9-3.1-6.9-6.9v-7c0-3.8,3.1-6.9,6.9-6.9h62.5c3.8,0,7,3.1,7,6.9v7
		C399.4,421.6,396.3,424.7,392.4,424.7z"/>
	<path fill="#FFFFFF" d="M309.6,218.3L284,247.1c-1.3,1.4-3,2.1-4.8,2.1c-1.4,0-2.8-0.5-4-1.4l-16-12.8c-2.8-2.2-3.2-6.2-1-9
		c2.2-2.8,6.2-3.2,9-1l11.3,9l21.6-24.3c2.3-2.6,6.4-2.9,9-0.5C311.7,211.6,312,215.7,309.6,218.3z"/>
	<path fill="#FFFFFF" d="M309.6,280.1L284,308.9c-1.3,1.4-3,2.1-4.8,2.1c-1.4,0-2.8-0.5-4-1.4l-16-12.8c-2.8-2.2-3.2-6.2-1-9
		c2.2-2.8,6.2-3.2,9-1l11.3,9l21.6-24.3c2.3-2.6,6.4-2.9,9-0.5C311.7,273.4,312,277.5,309.6,280.1z"/>
	<path fill="#FFFFFF" d="M309.6,339.3L284,368.1c-1.3,1.4-3,2.1-4.8,2.1c-1.4,0-2.8-0.5-4-1.4l-16-12.8c-2.8-2.2-3.2-6.2-1-9
		c2.2-2.8,6.2-3.2,9-1l11.3,9l21.6-24.3c2.3-2.6,6.4-2.9,9-0.5C311.7,332.6,312,336.6,309.6,339.3z"/>
	<path fill="#FFFFFF" d="M309.6,398.8L284,427.6c-1.3,1.4-3,2.1-4.8,2.1c-1.4,0-2.8-0.5-4-1.4l-16-12.8c-2.8-2.2-3.2-6.2-1-9
		c2.2-2.8,6.2-3.2,9-1l11.3,9l21.6-24.3c2.3-2.6,6.4-2.9,9-0.5C311.7,392.1,312,396.2,309.6,398.8z"/>
</g>
</svg>
