<?xml version="1.0" encoding="utf-8"?>
<!-- Generator: Adobe Illustrator 18.0.0, SVG Export Plug-In . SVG Version: 6.00 Build 0)  -->
<!DOCTYPE svg PUBLIC "-//W3C//DTD SVG 1.1//EN" "http://www.w3.org/Graphics/SVG/1.1/DTD/svg11.dtd">
<svg version="1.1" id="Layer_1" xmlns="http://www.w3.org/2000/svg" xmlns:xlink="http://www.w3.org/1999/xlink" x="0px" y="0px"
	 viewBox="0 0 792 612" enable-background="new 0 0 792 612" xml:space="preserve">
<g>
	<path fill="#FFFFFF" d="M303.9,288.3V332c0,29.1,23.6,52.6,52.6,52.6h78.9c29.1,0,52.6-23.6,52.6-52.6v-43.7h-65.8v-39.5h65.8
		v-60.2h-65.8v-39.5h65.8v-25.9c0-29.1-23.6-52.6-52.6-52.6h-78.9c-29.1,0-52.6,23.6-52.6,52.6v25.9h65.8v39.5h-65.8v60.2h65.8v39.5
		H303.9z M303.9,288.3"/>
	<path fill="#FFFFFF" d="M248.6,357.7c10,47.2,51.7,82.8,97,82.8h30.6v61.2h-38.2v39.5h115.8v-39.5h-38.2v-61.2h30.6
		c47.9,0,86.8-41.8,96.8-82.1l-38.3-9.5c-6.3,25.2-31.3,52.2-58.5,52.2H345.6c-26.2,0-52.4-23.1-58.4-51.5L248.6,357.7z
		 M248.6,357.7"/>
</g>
</svg>
