<?xml version="1.0" encoding="iso-8859-1"?>
<!-- Generator: Adobe Illustrator 16.0.0, SVG Export Plug-In . SVG Version: 6.00 Build 0)  -->
<!DOCTYPE svg PUBLIC "-//W3C//DTD SVG 1.1//EN" "http://www.w3.org/Graphics/SVG/1.1/DTD/svg11.dtd">
<svg xmlns="http://www.w3.org/2000/svg" xmlns:xlink="http://www.w3.org/1999/xlink" version="1.1" id="Capa_1" x="0px" y="0px" width="512px" height="512px" viewBox="0 0 29.875 29.875" style="enable-background:new 0 0 29.875 29.875;" xml:space="preserve">
<g>
	<g>
		<path d="M21.699,5.323c0.688,0.216,1.277,0.516,1.691,0.905h5.578v9.637c0.293,0.335,0.463,0.728,0.463,1.183v0.422    c0,0.246-0.054,0.474-0.146,0.686l0.146,0.004v1.098c0,0.236-0.048,0.455-0.133,0.658l0.133,0.004v1.099    c0,0.215-0.043,0.415-0.115,0.603h0.559V5.323H21.699z" fill="#FFFFFF"/>
		<path d="M15.663,5.323H0v16.295h13.778c-0.224-0.265-0.366-0.566-0.414-0.904H0.905V6.229H13.97    C14.385,5.839,14.976,5.54,15.663,5.323z" fill="#FFFFFF"/>
		<path d="M23.117,8.69c0,0.98-1.986,1.774-4.436,1.774c-2.451,0-4.437-0.794-4.437-1.774v1.097c0,0.98,1.983,1.774,4.437,1.774    c2.448,0,4.436-0.794,4.436-1.774V8.69z" fill="#FFFFFF"/>
		<path d="M23.117,10.451c0,0.98-1.986,1.773-4.436,1.773c-2.451,0-4.437-0.793-4.437-1.773v1.098c0,0.98,1.983,1.774,4.437,1.774    c2.448,0,4.436-0.794,4.436-1.774V10.451z" fill="#FFFFFF"/>
		<path d="M23.117,12.21c0,0.98-1.986,1.774-4.436,1.774c-2.451,0-4.437-0.794-4.437-1.774v1.098c0,0.98,1.983,1.774,4.437,1.774    c2.448,0,4.436-0.793,4.436-1.774V12.21z" fill="#FFFFFF"/>
		<path d="M23.117,7.579c0-0.98-1.986-1.774-4.436-1.774c-2.451,0-4.437,0.794-4.437,1.774V8c0,0.98,1.983,1.774,4.437,1.774    c2.448,0,4.436-0.793,4.436-1.774V7.579z M18.682,8.91c-2.438,0-3.993-0.788-3.993-1.331s1.555-1.331,3.993-1.331    c2.437,0,3.99,0.788,3.99,1.331S21.118,8.91,18.682,8.91z" fill="#FFFFFF"/>
		<path d="M23.117,14.639v-0.668c0,0.251-0.133,0.489-0.368,0.707C22.871,14.663,22.993,14.649,23.117,14.639z" fill="#FFFFFF"/>
		<path d="M18.682,15.745c-2.451,0-4.437-0.793-4.437-1.773v1.098c0,0.98,1.983,1.774,4.437,1.774c0.106,0,0.213-0.005,0.318-0.007    c0.066-0.448,0.339-0.832,0.757-1.146C19.412,15.725,19.053,15.745,18.682,15.745z" fill="#FFFFFF"/>
		<path d="M14.246,15.852v1.099c0,0.979,1.984,1.773,4.436,1.773c0.102,0,0.199-0.004,0.299-0.006c0-0.493,0-0.891,0-1.098    c-0.1,0.002-0.197,0.006-0.299,0.006C16.23,17.626,14.246,16.833,14.246,15.852z" fill="#FFFFFF"/>
		<path d="M14.246,17.611v1.099c0,0.979,1.984,1.773,4.436,1.773c0.102,0,0.199-0.004,0.299-0.006c0-0.367,0-0.74,0-1.098    c-0.1,0.002-0.197,0.006-0.299,0.006C16.23,19.387,14.246,18.593,14.246,17.611z" fill="#FFFFFF"/>
		<path d="M14.246,19.372v1.099c0,0.979,1.984,1.774,4.436,1.774c0.102,0,0.199-0.004,0.299-0.006c0-0.289,0-0.671,0-1.098    c-0.1,0.002-0.197,0.006-0.299,0.006C16.23,21.146,14.246,20.353,14.246,19.372z" fill="#FFFFFF"/>
		<path d="M24.09,19.934c-2.449,0-4.436-0.794-4.436-1.774v1.098c0,0.98,1.986,1.774,4.436,1.774c2.451,0,4.436-0.794,4.436-1.774    v-1.098C28.525,19.14,26.541,19.934,24.09,19.934z" fill="#FFFFFF"/>
		<path d="M24.09,21.693c-2.449,0-4.436-0.793-4.436-1.774v1.099c0,0.979,1.986,1.774,4.436,1.774c2.451,0,4.436-0.795,4.436-1.774    v-1.099C28.525,20.899,26.541,21.693,24.09,21.693z" fill="#FFFFFF"/>
		<path d="M24.09,23.454c-2.449,0-4.436-0.795-4.436-1.774v1.098c0,0.979,1.986,1.774,4.436,1.774c2.451,0,4.436-0.795,4.436-1.774    V21.68C28.525,22.659,26.541,23.454,24.09,23.454z" fill="#FFFFFF"/>
		<path d="M24.09,15.272c-2.449,0-4.436,0.794-4.436,1.773v0.423c0,0.979,1.986,1.774,4.436,1.774c2.451,0,4.436-0.793,4.436-1.774    v-0.421C28.525,16.066,26.541,15.272,24.09,15.272z M24.09,18.378c-2.438,0-3.99-0.789-3.99-1.332s1.555-1.33,3.99-1.33    c2.438,0,3.992,0.787,3.992,1.33S26.527,18.378,24.09,18.378z" fill="#FFFFFF"/>
		<path d="M13.34,20.261V7.579c0-0.332,0.093-0.629,0.255-0.896H1.358v13.579L13.34,20.261L13.34,20.261z M5.741,10.47    c0.392-0.39,0.911-0.616,1.557-0.68V8.805h0.773v0.964c0.745,0.035,1.301,0.155,1.668,0.36v1.429    c-0.494-0.299-1.051-0.483-1.668-0.55v2.007c0.773,0.279,1.327,0.597,1.663,0.956c0.335,0.358,0.503,0.792,0.503,1.3    c0,0.585-0.188,1.059-0.562,1.416s-0.909,0.576-1.604,0.654v1.148H7.297v-1.117c-0.717-0.004-1.383-0.166-2.001-0.486v-1.469    c0.205,0.166,0.51,0.32,0.916,0.461c0.405,0.142,0.768,0.223,1.085,0.244v-1.928c-0.825-0.307-1.391-0.64-1.691-0.998    c-0.302-0.358-0.453-0.795-0.453-1.311C5.153,11.332,5.349,10.859,5.741,10.47z" fill="#FFFFFF"/>
		<path d="M24.09,14.368c1.661,0,3.398,0.352,4.426,1.094v-8.78h-4.748c0.162,0.268,0.254,0.565,0.254,0.896v6.791    C24.044,14.37,24.068,14.368,24.09,14.368z" fill="#FFFFFF"/>
		<path d="M7.297,12.707v-1.678c-0.49,0.088-0.736,0.344-0.736,0.767C6.561,12.16,6.807,12.462,7.297,12.707z" fill="#FFFFFF"/>
		<path d="M8.828,15.344c0-0.347-0.252-0.628-0.757-0.847v1.604C8.576,16.022,8.828,15.771,8.828,15.344z" fill="#FFFFFF"/>
	</g>
</g>
<g>
</g>
<g>
</g>
<g>
</g>
<g>
</g>
<g>
</g>
<g>
</g>
<g>
</g>
<g>
</g>
<g>
</g>
<g>
</g>
<g>
</g>
<g>
</g>
<g>
</g>
<g>
</g>
<g>
</g>
</svg>
