<?xml version="1.0" encoding="utf-8"?>
<!-- Generator: Adobe Illustrator 18.0.0, SVG Export Plug-In . SVG Version: 6.00 Build 0)  -->
<!DOCTYPE svg PUBLIC "-//W3C//DTD SVG 1.1//EN" "http://www.w3.org/Graphics/SVG/1.1/DTD/svg11.dtd">
<svg version="1.1" id="Layer_1" xmlns="http://www.w3.org/2000/svg" xmlns:xlink="http://www.w3.org/1999/xlink" x="0px" y="0px"
	 viewBox="0 0 792 612" enable-background="new 0 0 792 612" xml:space="preserve">
<g>
	<g>
		<g>
			<rect x="284.5" y="328.3" fill="#FFFFFF" width="221.4" height="22.1"/>
			<rect x="284.5" y="394.7" fill="#FFFFFF" width="221.4" height="22.1"/>
			<rect x="284.5" y="461.1" fill="#FFFFFF" width="221.4" height="22.1"/>
			<rect x="284.5" y="261.9" fill="#FFFFFF" width="221.4" height="22.1"/>
			<path fill="#FFFFFF" d="M561.6,549.7c0,0,10.7,0,10.7-10.8V160l-96.6-97.4H228.9c0,0-10.7,0-10.7,10.8v465.4
				c0,10.8,10.7,10.8,10.7,10.8H561.6z M240.3,84.8h221.4v66.4c0,22.1,22.1,22.1,22.1,22.1h66.4v354.2H240.3V84.8z"/>
		</g>
	</g>
	<path fill="#FFFFFF" d="M370.5,177.2c6.4-4.5,10.7-12,10.7-20.4c0-13.8-11.2-25-25-25c-13.8,0-25,11.2-25,25
		c0,8.5,4.2,15.9,10.7,20.4c-15.3,5.8-26.2,20.3-26.3,37.6h81.3C396.6,197.5,385.7,183,370.5,177.2z"/>
</g>
</svg>
